<svg width="24" height="24" viewBox="0 0 24 24" fill="none" xmlns="http://www.w3.org/2000/svg">
<path fill-rule="evenodd" clip-rule="evenodd" d="M10.9541 22H19C19.5523 22 20 21.5523 20 21C20 20.4477 19.5523 20 19 20H11.7541L10.9541 22ZM9.6 20H5C4.44772 20 4 20.4477 4 21C4 21.5523 4.44772 22 5 22H8.8L9.6 20Z" fill="#564026" fill-opacity="0.8"/>
<path fill-rule="evenodd" clip-rule="evenodd" d="M12.6161 17.999H18.1909V17.999L18.1989 17.999C18.6339 17.9955 19.0559 17.8503 19.4009 17.5854C19.7458 17.3206 19.995 16.9507 20.1107 16.5316L20.1109 16.531L22.9447 6.28559L22.9459 6.28121C23.0292 5.97481 23.0131 5.64991 22.8999 5.35328C22.7868 5.05664 22.5824 4.80355 22.3162 4.63045C22.0501 4.45734 21.7359 4.37316 21.4188 4.39001C21.1018 4.40686 20.7983 4.52387 20.5519 4.72421C20.5453 4.72958 20.5388 4.73503 20.5323 4.74057L17.1035 7.67801L15.9352 10.3651C16.2102 10.4117 16.4922 10.4002 16.7628 10.3312C17.0489 10.2583 17.3154 10.1229 17.543 9.93485L17.5565 9.92343L20.5798 7.33345L18.1831 15.9984L18.183 15.999H13.4856L12.6161 17.999ZM14.3389 9.02045L12 4.58024L9.49472 9.33699L9.48899 9.34789L9.48892 9.34785C9.34813 9.60738 9.15162 9.83251 8.9135 10.0071C8.67539 10.1817 8.40158 10.3014 8.11172 10.3576C7.82186 10.4138 7.52316 10.4051 7.23705 10.3322C6.95093 10.2593 6.68452 10.1239 6.45692 9.93585L6.44326 9.92436L3.421 7.33465L5.81676 15.9985L5.81691 15.999H11.3048L10.4352 17.999H5.80994H5.80296L5.80296 17.999C5.36763 17.9959 4.94518 17.8509 4.59974 17.586C4.2543 17.3211 4.00475 16.9506 3.88896 16.531L4.85216 16.2652L3.88911 16.5315L3.88896 16.531L1.05611 6.28652L1.05491 6.28221L1.05492 6.28221C0.971675 5.97582 0.987789 5.65092 1.10095 5.35428C1.21411 5.05764 1.41847 4.80455 1.68463 4.63145C1.95078 4.45834 2.265 4.37416 2.58204 4.39101C2.89909 4.40786 3.20261 4.52487 3.44892 4.72521C3.45556 4.7306 3.46212 4.73608 3.46861 4.74164L7.73097 8.39395L7.73071 8.39444L7.09394 9.16499L7.721 8.4332L7.73529 8.41652L7.73893 8.41227L7.74757 8.41682L8.60994 8.871L7.73162 8.39451L7.73097 8.39395L10.6771 2.80001L10.6859 2.78369C10.8154 2.54851 11.0057 2.35239 11.2368 2.2158C11.4679 2.07921 11.7315 2.00716 11.9999 2.00716C12.2684 2.00716 12.532 2.07921 12.7631 2.2158C12.9942 2.35239 13.1845 2.54851 13.3139 2.78369L13.3227 2.79994L15.3611 6.66954" fill="#564026" fill-opacity="0.8"/>
</svg>
