<svg width="24" height="24" viewBox="0 0 24 24" fill="none" xmlns="http://www.w3.org/2000/svg">
<path d="M11.5619 3.266C11.6051 3.18761 11.6685 3.12223 11.7456 3.0767C11.8226 3.03117 11.9104 3.00716 11.9999 3.00716C12.0894 3.00716 12.1773 3.03117 12.2543 3.0767C12.3314 3.12223 12.3948 3.18761 12.4379 3.266L15.3899 8.87C15.4603 8.99976 15.5586 9.11233 15.6776 9.19962C15.7967 9.28691 15.9336 9.34675 16.0785 9.37486C16.2235 9.40297 16.3728 9.39863 16.5159 9.36218C16.6589 9.32572 16.7921 9.25804 16.9059 9.164L21.1829 5.5C21.265 5.43322 21.3662 5.39422 21.4719 5.3886C21.5776 5.38298 21.6823 5.41105 21.771 5.46875C21.8598 5.52645 21.9279 5.61081 21.9656 5.70969C22.0033 5.80857 22.0087 5.91687 21.9809 6.019L19.1469 16.265C19.0891 16.4747 18.9645 16.6598 18.7919 16.7922C18.6194 16.9247 18.4084 16.9973 18.1909 16.999H5.80994C5.59227 16.9975 5.38105 16.925 5.20833 16.7925C5.03561 16.66 4.91083 16.4748 4.85294 16.265L2.01994 6.02C1.99219 5.91787 1.99756 5.80957 2.03528 5.71069C2.073 5.61181 2.14112 5.52745 2.22984 5.46975C2.31855 5.41205 2.42329 5.38398 2.52898 5.3896C2.63466 5.39522 2.73583 5.43422 2.81794 5.501L7.09394 9.165C7.20773 9.25904 7.34094 9.32672 7.484 9.36318C7.62705 9.39963 7.77641 9.40397 7.92134 9.37586C8.06626 9.34775 8.20317 9.28791 8.32223 9.20062C8.44129 9.11333 8.53954 9.00076 8.60994 8.871L11.5619 3.266Z" stroke="#564026" stroke-opacity="0.8" stroke-width="2" stroke-linecap="round" stroke-linejoin="round"/>
<path d="M5 21H19" stroke="#564026" stroke-opacity="0.8" stroke-width="2" stroke-linecap="round" stroke-linejoin="round"/>
</svg>
