<svg width="98" height="30" viewBox="0 0 98 30" fill="none" xmlns="http://www.w3.org/2000/svg">
<rect width="98" height="30" rx="4" fill="url(#paint0_linear_17_2)"/>
<path d="M20.3333 17.3333L22.8333 10.6667L25.3333 17.3333C24.6083 17.875 23.7333 18.1667 22.8333 18.1667C21.9333 18.1667 21.0583 17.875 20.3333 17.3333Z" stroke="#564026" stroke-opacity="0.8" stroke-width="1.5" stroke-linecap="round" stroke-linejoin="round"/>
<path d="M8.66669 17.3333L11.1667 10.6667L13.6667 17.3333C12.9417 17.875 12.0667 18.1667 11.1667 18.1667C10.2667 18.1667 9.39169 17.875 8.66669 17.3333Z" stroke="#564026" stroke-opacity="0.8" stroke-width="1.5" stroke-linecap="round" stroke-linejoin="round"/>
<path d="M12.8333 21.5H21.1666" stroke="#564026" stroke-opacity="0.8" stroke-width="1.5" stroke-linecap="round" stroke-linejoin="round"/>
<path d="M17 6.5V21.5" stroke="#564026" stroke-opacity="0.8" stroke-width="1.5" stroke-linecap="round" stroke-linejoin="round"/>
<path d="M9.5 9.83333H11.1667C12.8333 9.83333 15.3333 9 17 8.16667C18.6667 9 21.1667 9.83333 22.8333 9.83333H24.5" stroke="#564026" stroke-opacity="0.8" stroke-width="1.5" stroke-linecap="round" stroke-linejoin="round"/>
<path d="M51.936 13.06C51.72 12.644 51.42 12.332 51.036 12.124C50.652 11.908 50.208 11.8 49.704 11.8C49.152 11.8 48.66 11.924 48.228 12.172C47.796 12.42 47.456 12.772 47.208 13.228C46.968 13.684 46.848 14.212 46.848 14.812C46.848 15.412 46.968 15.944 47.208 16.408C47.456 16.864 47.796 17.216 48.228 17.464C48.66 17.712 49.152 17.836 49.704 17.836C50.448 17.836 51.052 17.628 51.516 17.212C51.98 16.796 52.264 16.232 52.368 15.52H49.236V14.428H53.832V15.496C53.744 16.144 53.512 16.74 53.136 17.284C52.768 17.828 52.284 18.264 51.684 18.592C51.092 18.912 50.432 19.072 49.704 19.072C48.92 19.072 48.204 18.892 47.556 18.532C46.908 18.164 46.392 17.656 46.008 17.008C45.632 16.36 45.444 15.628 45.444 14.812C45.444 13.996 45.632 13.264 46.008 12.616C46.392 11.968 46.908 11.464 47.556 11.104C48.212 10.736 48.928 10.552 49.704 10.552C50.592 10.552 51.38 10.772 52.068 11.212C52.764 11.644 53.268 12.26 53.58 13.06H51.936ZM61.0133 13.144C61.0133 13.568 60.9133 13.968 60.7133 14.344C60.5133 14.72 60.1933 15.028 59.7533 15.268C59.3133 15.5 58.7493 15.616 58.0613 15.616H56.5493V19H55.1813V10.66H58.0613C58.7013 10.66 59.2413 10.772 59.6813 10.996C60.1293 11.212 60.4613 11.508 60.6773 11.884C60.9013 12.26 61.0133 12.68 61.0133 13.144ZM58.0613 14.5C58.5813 14.5 58.9693 14.384 59.2253 14.152C59.4813 13.912 59.6093 13.576 59.6093 13.144C59.6093 12.232 59.0933 11.776 58.0613 11.776H56.5493V14.5H58.0613ZM63.686 17.896H66.506V19H62.318V10.66H63.686V17.896ZM72.726 14.08V15.232H67.794V14.08H72.726ZM81.8575 10.66L78.7255 19H77.1415L73.9975 10.66H75.4615L77.9335 17.596L80.4175 10.66H81.8575ZM82.7976 12.412C82.8456 11.668 83.1296 11.088 83.6496 10.672C84.1776 10.256 84.8496 10.048 85.6656 10.048C86.2256 10.048 86.7096 10.148 87.1176 10.348C87.5256 10.548 87.8336 10.82 88.0416 11.164C88.2496 11.508 88.3536 11.896 88.3536 12.328C88.3536 12.824 88.2216 13.248 87.9576 13.6C87.6936 13.952 87.3776 14.188 87.0096 14.308V14.356C87.4816 14.5 87.8496 14.764 88.1136 15.148C88.3776 15.524 88.5096 16.008 88.5096 16.6C88.5096 17.072 88.4016 17.492 88.1856 17.86C87.9696 18.228 87.6496 18.52 87.2256 18.736C86.8016 18.944 86.2936 19.048 85.7016 19.048C84.8376 19.048 84.1256 18.828 83.5656 18.388C83.0136 17.94 82.7176 17.3 82.6776 16.468H83.9976C84.0296 16.892 84.1936 17.24 84.4896 17.512C84.7856 17.776 85.1856 17.908 85.6896 17.908C86.1776 17.908 86.5536 17.776 86.8176 17.512C87.0816 17.24 87.2136 16.892 87.2136 16.468C87.2136 15.908 87.0336 15.512 86.6736 15.28C86.3216 15.04 85.7776 14.92 85.0416 14.92H84.7296V13.792H85.0536C85.7016 13.784 86.1936 13.676 86.5296 13.468C86.8736 13.26 87.0456 12.932 87.0456 12.484C87.0456 12.1 86.9216 11.796 86.6736 11.572C86.4256 11.34 86.0736 11.224 85.6176 11.224C85.1696 11.224 84.8216 11.34 84.5736 11.572C84.3256 11.796 84.1776 12.076 84.1296 12.412H82.7976Z" fill="#564026" fill-opacity="0.8"/>
<line x1="35" x2="35" y2="30" stroke="white" stroke-width="2"/>
<defs>
<linearGradient id="paint0_linear_17_2" x1="98" y1="15" x2="4.79454e-08" y2="15" gradientUnits="userSpaceOnUse">
<stop stop-color="#FFF5DC"/>
<stop offset="1" stop-color="white"/>
</linearGradient>
</defs>
</svg>
